<mxfile host="app.diagrams.net" agent="Mozilla/5.0 (Windows NT 10.0; Win64; x64) AppleWebKit/537.36 (KHTML, like Gecko) Chrome/140.0.0.0 Safari/537.36 Edg/140.0.0.0" version="28.2.3">
  <diagram name="第 1 页" id="8V2FVJMnQYUvtCYbFyvr">
    <mxGraphModel dx="1205" dy="773" grid="1" gridSize="10" guides="1" tooltips="1" connect="1" arrows="1" fold="1" page="1" pageScale="1" pageWidth="827" pageHeight="1169" math="0" shadow="0">
      <root>
        <mxCell id="0" />
        <mxCell id="1" parent="0" />
        <mxCell id="Zm71_4d6X--3srAyC-9T-1" value="idle_list" style="text;html=1;align=center;verticalAlign=middle;whiteSpace=wrap;rounded=0;fontSize=20;" vertex="1" parent="1">
          <mxGeometry x="350" y="695" width="100" height="40" as="geometry" />
        </mxCell>
        <mxCell id="Zm71_4d6X--3srAyC-9T-2" value="buffer1" style="rounded=0;whiteSpace=wrap;html=1;fontSize=15;fillColor=#ffe6cc;strokeColor=#d79b00;" vertex="1" parent="1">
          <mxGeometry x="510" y="695" width="100" height="40" as="geometry" />
        </mxCell>
        <mxCell id="Zm71_4d6X--3srAyC-9T-3" value="" style="endArrow=classic;html=1;rounded=0;exitX=1;exitY=0.5;exitDx=0;exitDy=0;" edge="1" parent="1" source="Zm71_4d6X--3srAyC-9T-1">
          <mxGeometry width="50" height="50" relative="1" as="geometry">
            <mxPoint x="580" y="575" as="sourcePoint" />
            <mxPoint x="510" y="715" as="targetPoint" />
          </mxGeometry>
        </mxCell>
        <mxCell id="Zm71_4d6X--3srAyC-9T-4" value="buffer2" style="rounded=0;whiteSpace=wrap;html=1;fontSize=15;fillColor=#d5e8d4;strokeColor=#82b366;" vertex="1" parent="1">
          <mxGeometry x="670" y="695" width="100" height="40" as="geometry" />
        </mxCell>
        <mxCell id="Zm71_4d6X--3srAyC-9T-5" value="" style="endArrow=classic;html=1;rounded=0;exitX=1;exitY=0.5;exitDx=0;exitDy=0;" edge="1" parent="1">
          <mxGeometry width="50" height="50" relative="1" as="geometry">
            <mxPoint x="610" y="714.58" as="sourcePoint" />
            <mxPoint x="670" y="714.58" as="targetPoint" />
          </mxGeometry>
        </mxCell>
        <mxCell id="Zm71_4d6X--3srAyC-9T-6" value="buffer3" style="rounded=0;whiteSpace=wrap;html=1;fontSize=15;fillColor=#dae8fc;strokeColor=#6c8ebf;" vertex="1" parent="1">
          <mxGeometry x="830" y="695" width="100" height="40" as="geometry" />
        </mxCell>
        <mxCell id="Zm71_4d6X--3srAyC-9T-7" value="" style="endArrow=classic;html=1;rounded=0;exitX=1;exitY=0.5;exitDx=0;exitDy=0;" edge="1" parent="1">
          <mxGeometry width="50" height="50" relative="1" as="geometry">
            <mxPoint x="770" y="714.58" as="sourcePoint" />
            <mxPoint x="830" y="714.58" as="targetPoint" />
          </mxGeometry>
        </mxCell>
        <mxCell id="Zm71_4d6X--3srAyC-9T-8" value="list" style="rounded=0;whiteSpace=wrap;html=1;fontSize=15;" vertex="1" parent="1">
          <mxGeometry x="440" y="340" width="100" height="40" as="geometry" />
        </mxCell>
        <mxCell id="Zm71_4d6X--3srAyC-9T-9" value="list" style="rounded=0;whiteSpace=wrap;html=1;fontSize=15;" vertex="1" parent="1">
          <mxGeometry x="540" y="340" width="100" height="40" as="geometry" />
        </mxCell>
        <mxCell id="Zm71_4d6X--3srAyC-9T-10" value="list" style="rounded=0;whiteSpace=wrap;html=1;fontSize=15;" vertex="1" parent="1">
          <mxGeometry x="640" y="340" width="100" height="40" as="geometry" />
        </mxCell>
        <mxCell id="Zm71_4d6X--3srAyC-9T-11" value="..." style="rounded=0;whiteSpace=wrap;html=1;fontSize=15;" vertex="1" parent="1">
          <mxGeometry x="740" y="340" width="100" height="40" as="geometry" />
        </mxCell>
        <mxCell id="Zm71_4d6X--3srAyC-9T-12" value="buffer1" style="rounded=0;whiteSpace=wrap;html=1;fontSize=15;fillColor=#ffe6cc;strokeColor=#d79b00;" vertex="1" parent="1">
          <mxGeometry x="440" y="440" width="100" height="40" as="geometry" />
        </mxCell>
        <mxCell id="Zm71_4d6X--3srAyC-9T-13" value="buffer2" style="rounded=0;whiteSpace=wrap;html=1;fontSize=15;fillColor=#d5e8d4;strokeColor=#82b366;" vertex="1" parent="1">
          <mxGeometry x="640" y="440" width="100" height="40" as="geometry" />
        </mxCell>
        <mxCell id="Zm71_4d6X--3srAyC-9T-15" value="" style="endArrow=classic;html=1;rounded=0;exitX=0.5;exitY=1;exitDx=0;exitDy=0;entryX=0.5;entryY=0;entryDx=0;entryDy=0;" edge="1" parent="1" source="Zm71_4d6X--3srAyC-9T-8" target="Zm71_4d6X--3srAyC-9T-12">
          <mxGeometry width="50" height="50" relative="1" as="geometry">
            <mxPoint x="610" y="470" as="sourcePoint" />
            <mxPoint x="660" y="420" as="targetPoint" />
          </mxGeometry>
        </mxCell>
        <mxCell id="Zm71_4d6X--3srAyC-9T-16" value="" style="endArrow=classic;html=1;rounded=0;exitX=0.5;exitY=1;exitDx=0;exitDy=0;entryX=0.5;entryY=0;entryDx=0;entryDy=0;" edge="1" parent="1" source="Zm71_4d6X--3srAyC-9T-10" target="Zm71_4d6X--3srAyC-9T-13">
          <mxGeometry width="50" height="50" relative="1" as="geometry">
            <mxPoint x="610" y="470" as="sourcePoint" />
            <mxPoint x="660" y="420" as="targetPoint" />
          </mxGeometry>
        </mxCell>
        <mxCell id="Zm71_4d6X--3srAyC-9T-18" value="buffer4" style="rounded=0;whiteSpace=wrap;html=1;fontSize=15;fillColor=#f8cecc;strokeColor=#b85450;" vertex="1" parent="1">
          <mxGeometry x="540" y="490" width="100" height="40" as="geometry" />
        </mxCell>
        <mxCell id="Zm71_4d6X--3srAyC-9T-19" value="" style="endArrow=classic;html=1;rounded=0;exitX=0.5;exitY=1;exitDx=0;exitDy=0;entryX=0.5;entryY=0;entryDx=0;entryDy=0;" edge="1" parent="1" target="Zm71_4d6X--3srAyC-9T-18">
          <mxGeometry width="50" height="50" relative="1" as="geometry">
            <mxPoint x="589.58" y="380" as="sourcePoint" />
            <mxPoint x="589.58" y="440" as="targetPoint" />
          </mxGeometry>
        </mxCell>
        <mxCell id="Zm71_4d6X--3srAyC-9T-20" value="" style="endArrow=none;html=1;rounded=0;dashed=1;dashPattern=8 8;" edge="1" parent="1">
          <mxGeometry width="50" height="50" relative="1" as="geometry">
            <mxPoint x="360" y="630" as="sourcePoint" />
            <mxPoint x="920" y="630" as="targetPoint" />
          </mxGeometry>
        </mxCell>
        <mxCell id="Zm71_4d6X--3srAyC-9T-21" value="" style="endArrow=none;html=1;rounded=0;dashed=1;dashPattern=8 8;" edge="1" parent="1">
          <mxGeometry width="50" height="50" relative="1" as="geometry">
            <mxPoint x="360" y="270" as="sourcePoint" />
            <mxPoint x="920" y="270" as="targetPoint" />
          </mxGeometry>
        </mxCell>
        <mxCell id="Zm71_4d6X--3srAyC-9T-22" value="" style="endArrow=none;html=1;rounded=0;dashed=1;dashPattern=8 8;" edge="1" parent="1">
          <mxGeometry width="50" height="50" relative="1" as="geometry">
            <mxPoint x="360" y="270" as="sourcePoint" />
            <mxPoint x="360" y="630" as="targetPoint" />
          </mxGeometry>
        </mxCell>
        <mxCell id="Zm71_4d6X--3srAyC-9T-23" value="" style="endArrow=none;html=1;rounded=0;dashed=1;dashPattern=8 8;" edge="1" parent="1">
          <mxGeometry width="50" height="50" relative="1" as="geometry">
            <mxPoint x="920" y="270" as="sourcePoint" />
            <mxPoint x="920" y="630" as="targetPoint" />
          </mxGeometry>
        </mxCell>
        <mxCell id="Zm71_4d6X--3srAyC-9T-24" value="哈希表" style="text;html=1;align=center;verticalAlign=middle;whiteSpace=wrap;rounded=0;fontSize=20;" vertex="1" parent="1">
          <mxGeometry x="360" y="270" width="100" height="30" as="geometry" />
        </mxCell>
        <mxCell id="Zm71_4d6X--3srAyC-9T-25" value="block1" style="rounded=0;whiteSpace=wrap;html=1;fontSize=15;fillColor=#ffe6cc;strokeColor=#d79b00;" vertex="1" parent="1">
          <mxGeometry x="440" y="830" width="100" height="40" as="geometry" />
        </mxCell>
        <mxCell id="Zm71_4d6X--3srAyC-9T-26" value="block2" style="rounded=0;whiteSpace=wrap;html=1;fontSize=15;fillColor=#d5e8d4;strokeColor=#82b366;" vertex="1" parent="1">
          <mxGeometry x="540" y="830" width="100" height="40" as="geometry" />
        </mxCell>
        <mxCell id="Zm71_4d6X--3srAyC-9T-27" value="block3" style="rounded=0;whiteSpace=wrap;html=1;fontSize=15;fillColor=#dae8fc;strokeColor=#6c8ebf;" vertex="1" parent="1">
          <mxGeometry x="630" y="830" width="100" height="40" as="geometry" />
        </mxCell>
        <mxCell id="Zm71_4d6X--3srAyC-9T-28" value="block4" style="rounded=0;whiteSpace=wrap;html=1;fontSize=15;fillColor=#f8cecc;strokeColor=#b85450;" vertex="1" parent="1">
          <mxGeometry x="730" y="830" width="100" height="40" as="geometry" />
        </mxCell>
        <mxCell id="Zm71_4d6X--3srAyC-9T-29" value="block4" style="rounded=0;whiteSpace=wrap;html=1;fontSize=15;fillColor=#f5f5f5;strokeColor=#666666;fontColor=#333333;" vertex="1" parent="1">
          <mxGeometry x="830" y="830" width="100" height="40" as="geometry" />
        </mxCell>
        <mxCell id="Zm71_4d6X--3srAyC-9T-30" value="Disk:" style="text;html=1;align=center;verticalAlign=middle;whiteSpace=wrap;rounded=0;fontSize=20;" vertex="1" parent="1">
          <mxGeometry x="340" y="830" width="100" height="40" as="geometry" />
        </mxCell>
        <mxCell id="Zm71_4d6X--3srAyC-9T-33" value="" style="endArrow=classic;html=1;rounded=0;exitX=0.5;exitY=0;exitDx=0;exitDy=0;" edge="1" parent="1" source="Zm71_4d6X--3srAyC-9T-29" target="Zm71_4d6X--3srAyC-9T-6">
          <mxGeometry width="50" height="50" relative="1" as="geometry">
            <mxPoint x="680" y="660" as="sourcePoint" />
            <mxPoint x="730" y="610" as="targetPoint" />
          </mxGeometry>
        </mxCell>
        <mxCell id="Zm71_4d6X--3srAyC-9T-34" value="buffer3" style="rounded=0;whiteSpace=wrap;html=1;fontSize=15;fillColor=#dae8fc;strokeColor=#6c8ebf;" vertex="1" parent="1">
          <mxGeometry x="440" y="540" width="100" height="40" as="geometry" />
        </mxCell>
        <mxCell id="Zm71_4d6X--3srAyC-9T-35" value="" style="endArrow=classic;html=1;rounded=0;exitX=0.5;exitY=1;exitDx=0;exitDy=0;entryX=0.5;entryY=0;entryDx=0;entryDy=0;" edge="1" parent="1">
          <mxGeometry width="50" height="50" relative="1" as="geometry">
            <mxPoint x="489.5" y="480" as="sourcePoint" />
            <mxPoint x="489.5" y="540" as="targetPoint" />
          </mxGeometry>
        </mxCell>
        <mxCell id="Zm71_4d6X--3srAyC-9T-36" value="" style="endArrow=classic;html=1;rounded=0;exitX=0.5;exitY=1;exitDx=0;exitDy=0;entryX=0.5;entryY=0;entryDx=0;entryDy=0;dashed=1;dashPattern=8 8;" edge="1" parent="1" source="Zm71_4d6X--3srAyC-9T-6" target="Zm71_4d6X--3srAyC-9T-27">
          <mxGeometry width="50" height="50" relative="1" as="geometry">
            <mxPoint x="680" y="660" as="sourcePoint" />
            <mxPoint x="730" y="610" as="targetPoint" />
          </mxGeometry>
        </mxCell>
        <mxCell id="Zm71_4d6X--3srAyC-9T-37" value="①" style="text;html=1;align=center;verticalAlign=middle;whiteSpace=wrap;rounded=0;fontSize=20;" vertex="1" parent="1">
          <mxGeometry x="710" y="760" width="60" height="30" as="geometry" />
        </mxCell>
        <mxCell id="Zm71_4d6X--3srAyC-9T-38" value="②" style="text;html=1;align=center;verticalAlign=middle;whiteSpace=wrap;rounded=0;fontSize=20;" vertex="1" parent="1">
          <mxGeometry x="880" y="760" width="60" height="30" as="geometry" />
        </mxCell>
      </root>
    </mxGraphModel>
  </diagram>
</mxfile>
